<?xml version="1.0" standalone="no"?><!DOCTYPE svg PUBLIC "-//W3C//DTD SVG 1.1//EN" "http://www.w3.org/Graphics/SVG/1.1/DTD/svg11.dtd"><svg t="1611905129501" class="icon" viewBox="0 0 2047 1024" version="1.1" xmlns="http://www.w3.org/2000/svg" p-id="1419" xmlns:xlink="http://www.w3.org/1999/xlink" width="399.8046875" height="200"><defs><style type="text/css"></style></defs><path d="M1929.793529 501.163334c65.120297 0 117.89286 52.537876 117.892861 117.359481s-52.772563 117.364815-117.892861 117.364815c-65.114964 0-117.882193-52.54321-117.882192-117.364815 0-64.816271 52.767229-117.364815 117.876859-117.364815z" fill="#bfbfbf" p-id="1420" data-spm-anchor-id="a313x.7781069.0.i2" class="selected"></path><path d="M980.746135 918.239397H767.106329l0.229353-531.416616 213.399786 0.746731 0.010667 530.669885z" fill="#2c2c2c" p-id="1421" data-spm-anchor-id="a313x.7781069.0.i1" class="selected"></path><path d="M873.995571 809.680677c58.277039 0 105.513123 47.972148 105.513124 107.155932s-47.236084 107.161266-105.513124 107.161266-105.529125-47.977482-105.529124-107.155932c0-59.189118 47.246752-107.155932 105.529124-107.155932zM873.995571 277.186634c58.277039 0 105.513123 47.972148 105.513124 107.177267 0 59.199785-47.236084 107.177267-105.513124 107.177268s-105.529125-47.977482-105.529124-107.177268c0-59.205119 47.246752-107.177267 105.529124-107.177267zM106.627886 812.320905c57.63165 0 104.339689 47.364095 104.339689 105.795815 0 58.421051-46.708039 105.790481-104.339689 105.790481-57.626316 0-104.329021-47.364095-104.329021-105.790481 0-58.426385 46.702705-105.795814 104.329021-105.795815zM107.091927 0c57.855669 0 104.755725 47.881473 104.755724 106.963915 0 59.077108-46.900055 106.974583-104.755724 106.974584-57.845002 0-104.755725-47.897475-104.755725-106.974584C2.336202 47.881473 49.246925 0 107.091927 0z" fill="#2c2c2c" p-id="1422" data-spm-anchor-id="a313x.7781069.0.i5" class="selected"></path><path d="M0.010668 110.649567l212.95708 2.261529 1.056091 392.263251 197.137046-192.790003 157.240263 146.615344-138.710661 136.58781 193.862096 261.339931-172.884282 125.456181-184.709304-246.901349-53.775317 49.886981-0.010667 138.812002L0 915.919196 0.010668 110.644234z" fill="#2c2c2c" p-id="1423" data-spm-anchor-id="a313x.7781069.0.i3" class="selected"></path><path d="M490.229055 277.239972c58.853089 0 106.54788 47.865472 106.54788 106.921245 0 59.045105-47.694791 106.931913-106.54788 106.931913-58.831754 0-106.54788-47.881473-106.547879-106.931913 0-59.055773 47.716126-106.921245 106.547879-106.921245zM533.288778 809.09396c58.490391 0 105.90249 48.094825 105.902491 107.411954 0 59.311795-47.417433 107.401287-105.902491 107.401287-58.495725 0-105.929159-48.094825-105.929159-107.401287 0-59.311795 47.433435-107.411954 105.929159-107.411954zM1236.661597 812.320905c57.63165 0 104.329021 47.364095 104.329021 105.795815 0 58.421051-46.697371 105.790481-104.329021 105.790481-57.636984 0-104.329021-47.364095-104.329021-105.790481 0-58.426385 46.692037-105.795814 104.329021-105.795815zM1237.120303 0c57.855669 0 104.755725 47.881473 104.755725 106.963915 0 59.077108-46.900055 106.974583-104.755725 106.974584-57.845002 0-104.755725-47.897475-104.755725-106.974584C1132.364578 47.881473 1179.280635 0 1237.120303 0z" fill="#2c2c2c" p-id="1424" data-spm-anchor-id="a313x.7781069.0.i4" class="selected"></path><path d="M1130.03371 110.649567l212.962414 2.261529 1.045424 392.263251 197.147713-192.790003 157.234929 146.615344-138.71066 136.58781 193.86743 261.339931-172.889616 125.456181-184.698637-246.901349-53.78065 49.886981-0.005334 138.812002-212.178347-8.267381V110.644234z" fill="#2c2c2c" p-id="1425" data-spm-anchor-id="a313x.7781069.0.i0" class="selected"></path><path d="M1620.262765 277.239972c58.847755 0 106.542546 47.865472 106.542546 106.921245 0 59.045105-47.694791 106.931913-106.542546 106.931913-58.831754 0-106.553213-47.881473-106.553213-106.931913 0-59.055773 47.716126-106.921245 106.553213-106.921245zM1663.317155 809.09396c58.490391 0 105.897157 48.094825 105.897156 107.411954 0 59.311795-47.406766 107.401287-105.897156 107.401287-58.495725 0-105.929159-48.094825-105.92916-107.401287 0-59.311795 47.433435-107.411954 105.92916-107.411954z" fill="#2c2c2c" p-id="1426" data-spm-anchor-id="a313x.7781069.0.i6" class="selected"></path></svg>